<?plantuml 1.2026.1?><svg xmlns="http://www.w3.org/2000/svg" xmlns:xlink="http://www.w3.org/1999/xlink" contentStyleType="text/css" data-diagram-type="SEQUENCE" height="2537px" preserveAspectRatio="none" style="width:1130px;height:2537px;background:#FFFFFF;" version="1.1" viewBox="0 0 1130 2537" width="1130px" zoomAndPan="magnify"><title>Todo API - Unified Sequence Diagram (Read &amp; Write Operations)</title><defs/><g><text fill="#000000" font-family="sans-serif" font-size="14" font-weight="bold" lengthAdjust="spacing" textLength="465.2266" x="328.7688" y="28.5352">Todo API - Unified Sequence Diagram (Read &amp; Write Operations)</text><rect fill="none" height="398.9922" style="stroke:#000000;stroke-width:1.5;" width="1103.7642" x="10" y="179.2871"/><rect fill="none" height="237.4395" style="stroke:#000000;stroke-width:1.5;" width="1009.5952" x="94.1689" y="333.8398"/><rect fill="none" height="411.9922" style="stroke:#000000;stroke-width:1.5;" width="1103.7642" x="10" y="592.2793"/><rect fill="none" height="250.4395" style="stroke:#000000;stroke-width:1.5;" width="1009.5952" x="94.1689" y="746.832"/><rect fill="none" height="192.1738" style="stroke:#000000;stroke-width:1.5;" width="711.2075" x="10" y="1061.582"/><rect fill="none" height="192.1738" style="stroke:#000000;stroke-width:1.5;" width="711.2075" x="10" y="1267.7559"/><rect fill="none" height="192.1738" style="stroke:#000000;stroke-width:1.5;" width="711.2075" x="10" y="1473.9297"/><rect fill="none" height="192.1738" style="stroke:#000000;stroke-width:1.5;" width="711.2075" x="10" y="1680.1035"/><rect fill="none" height="474.5234" style="stroke:#000000;stroke-width:1.5;" width="627.6406" x="486.1235" y="1929.5879"/><rect fill="none" height="413.9023" style="stroke:#000000;stroke-width:1.5;" width="607.6406" x="496.1235" y="1983.209"/><g class="participant-lifeline" data-entity-uid="part1" data-qualified-name="Client" id="part1-lifeline"><g><title>Client</title><rect fill="#000000" fill-opacity="0.00000" height="2337.4453" width="8" x="38.7524" y="118.9766"/><line style="stroke:#181818;stroke-width:0.5;stroke-dasharray:5,5;" x1="42" x2="42" y1="118.9766" y2="2456.4219"/></g></g><g class="participant-lifeline" data-entity-uid="part2" data-qualified-name="FE" id="part2-lifeline"><g><title>Angular Frontend</title><rect fill="#000000" fill-opacity="0.00000" height="2337.4453" width="8" x="166.5493" y="118.9766"/><line style="stroke:#181818;stroke-width:0.5;stroke-dasharray:5,5;" x1="170.1689" x2="170.1689" y1="118.9766" y2="2456.4219"/></g></g><g class="participant-lifeline" data-entity-uid="part3" data-qualified-name="API" id="part3-lifeline"><g><title>ElysiaJS API</title><rect fill="#000000" fill-opacity="0.00000" height="2337.4453" width="8" x="410.0322" y="118.9766"/><line style="stroke:#181818;stroke-width:0.5;stroke-dasharray:5,5;" x1="413.2227" x2="413.2227" y1="118.9766" y2="2456.4219"/></g></g><g class="participant-lifeline" data-entity-uid="part4" data-qualified-name="Redis" id="part4-lifeline"><g><title>Redis Cache</title><rect fill="#000000" fill-opacity="0.00000" height="2337.4453" width="8" x="550.2007" y="118.9766"/><line style="stroke:#181818;stroke-width:0.5;stroke-dasharray:5,5;" x1="554.1235" x2="554.1235" y1="118.9766" y2="2456.4219"/></g></g><g class="participant-lifeline" data-entity-uid="part5" data-qualified-name="Queue" id="part5-lifeline"><g><title>Redis Queue</title><rect fill="#000000" fill-opacity="0.00000" height="2337.4453" width="8" x="657.7427" y="118.9766"/><line style="stroke:#181818;stroke-width:0.5;stroke-dasharray:5,5;" x1="661.2778" x2="661.2778" y1="118.9766" y2="2456.4219"/></g></g><g class="participant-lifeline" data-entity-uid="part6" data-qualified-name="Worker" id="part6-lifeline"><g><title>Worker</title><rect fill="#000000" fill-opacity="0.00000" height="2337.4453" width="8" x="802.3101" y="118.9766"/><line style="stroke:#181818;stroke-width:0.5;stroke-dasharray:5,5;" x1="806.2202" x2="806.2202" y1="118.9766" y2="2456.4219"/></g></g><g class="participant-lifeline" data-entity-uid="part7" data-qualified-name="DB" id="part7-lifeline"><g><title>PostgreSQL</title><rect fill="#000000" fill-opacity="0.00000" height="2337.4453" width="8" x="1044.3394" y="118.9766"/><line style="stroke:#181818;stroke-width:0.5;stroke-dasharray:5,5;" x1="1047.9146" x2="1047.9146" y1="118.9766" y2="2456.4219"/></g></g><g class="participant participant-head" data-entity-uid="part1" data-qualified-name="Client" id="part1-head"><text fill="#000000" font-family="sans-serif" font-size="14" lengthAdjust="spacing" textLength="39.5049" x="20" y="116.0234">Client</text><ellipse cx="42.7524" cy="50.9883" fill="#E2E2F0" rx="8" ry="8" style="stroke:#181818;stroke-width:0.5;"/><path d="M42.7524,58.9883 L42.7524,85.9883 M29.7524,66.9883 L55.7524,66.9883 M42.7524,85.9883 L29.7524,100.9883 M42.7524,85.9883 L55.7524,100.9883" fill="none" style="stroke:#181818;stroke-width:0.5;"/></g><g class="participant participant-tail" data-entity-uid="part1" data-qualified-name="Client" id="part1-tail"><text fill="#000000" font-family="sans-serif" font-size="14" lengthAdjust="spacing" textLength="39.5049" x="20" y="2468.957">Client</text><ellipse cx="42.7524" cy="2480.4102" fill="#E2E2F0" rx="8" ry="8" style="stroke:#181818;stroke-width:0.5;"/><path d="M42.7524,2488.4102 L42.7524,2515.4102 M29.7524,2496.4102 L55.7524,2496.4102 M42.7524,2515.4102 L29.7524,2530.4102 M42.7524,2515.4102 L55.7524,2530.4102" fill="none" style="stroke:#181818;stroke-width:0.5;"/></g><g class="participant participant-head" data-entity-uid="part2" data-qualified-name="FE" id="part2-head"><rect fill="#E2E2F0" height="30.4883" rx="2.5" ry="2.5" style="stroke:#181818;stroke-width:0.5;" width="132.7607" x="104.1689" y="87.4883"/><text fill="#000000" font-family="sans-serif" font-size="14" lengthAdjust="spacing" textLength="118.7607" x="111.1689" y="108.0234">Angular Frontend</text></g><g class="participant participant-tail" data-entity-uid="part2" data-qualified-name="FE" id="part2-tail"><rect fill="#E2E2F0" height="30.4883" rx="2.5" ry="2.5" style="stroke:#181818;stroke-width:0.5;" width="132.7607" x="104.1689" y="2455.4219"/><text fill="#000000" font-family="sans-serif" font-size="14" lengthAdjust="spacing" textLength="118.7607" x="111.1689" y="2475.957">Angular Frontend</text></g><g class="participant participant-head" data-entity-uid="part3" data-qualified-name="API" id="part3-head"><rect fill="#E2E2F0" height="30.4883" rx="2.5" ry="2.5" style="stroke:#181818;stroke-width:0.5;" width="89.6191" x="369.2227" y="87.4883"/><text fill="#000000" font-family="sans-serif" font-size="14" lengthAdjust="spacing" textLength="75.6191" x="376.2227" y="108.0234">ElysiaJS API</text></g><g class="participant participant-tail" data-entity-uid="part3" data-qualified-name="API" id="part3-tail"><rect fill="#E2E2F0" height="30.4883" rx="2.5" ry="2.5" style="stroke:#181818;stroke-width:0.5;" width="89.6191" x="369.2227" y="2455.4219"/><text fill="#000000" font-family="sans-serif" font-size="14" lengthAdjust="spacing" textLength="75.6191" x="376.2227" y="2475.957">ElysiaJS API</text></g><g class="participant participant-head" data-entity-uid="part4" data-qualified-name="Redis" id="part4-head"><rect fill="#E2E2F0" height="30.4883" rx="2.5" ry="2.5" style="stroke:#181818;stroke-width:0.5;" width="96.1543" x="506.1235" y="87.4883"/><text fill="#000000" font-family="sans-serif" font-size="14" lengthAdjust="spacing" textLength="82.1543" x="513.1235" y="108.0234">Redis Cache</text></g><g class="participant participant-tail" data-entity-uid="part4" data-qualified-name="Redis" id="part4-tail"><rect fill="#E2E2F0" height="30.4883" rx="2.5" ry="2.5" style="stroke:#181818;stroke-width:0.5;" width="96.1543" x="506.1235" y="2455.4219"/><text fill="#000000" font-family="sans-serif" font-size="14" lengthAdjust="spacing" textLength="82.1543" x="513.1235" y="2475.957">Redis Cache</text></g><g class="participant participant-head" data-entity-uid="part5" data-qualified-name="Queue" id="part5-head"><rect fill="#E2E2F0" height="30.4883" rx="2.5" ry="2.5" style="stroke:#181818;stroke-width:0.5;" width="98.9297" x="612.2778" y="87.4883"/><text fill="#000000" font-family="sans-serif" font-size="14" lengthAdjust="spacing" textLength="84.9297" x="619.2778" y="108.0234">Redis Queue</text></g><g class="participant participant-tail" data-entity-uid="part5" data-qualified-name="Queue" id="part5-tail"><rect fill="#E2E2F0" height="30.4883" rx="2.5" ry="2.5" style="stroke:#181818;stroke-width:0.5;" width="98.9297" x="612.2778" y="2455.4219"/><text fill="#000000" font-family="sans-serif" font-size="14" lengthAdjust="spacing" textLength="84.9297" x="619.2778" y="2475.957">Redis Queue</text></g><g class="participant participant-head" data-entity-uid="part6" data-qualified-name="Worker" id="part6-head"><rect fill="#E2E2F0" height="46.9766" rx="2.5" ry="2.5" style="stroke:#181818;stroke-width:0.5;" width="76.1797" x="768.2202" y="71"/><text fill="#000000" font-family="sans-serif" font-size="14" lengthAdjust="spacing" textLength="48.0156" x="782.3022" y="91.5352">Worker</text><text fill="#000000" font-family="sans-serif" font-size="14" lengthAdjust="spacing" textLength="62.1797" x="775.2202" y="108.0234">(Plain TS)</text></g><g class="participant participant-tail" data-entity-uid="part6" data-qualified-name="Worker" id="part6-tail"><rect fill="#E2E2F0" height="46.9766" rx="2.5" ry="2.5" style="stroke:#181818;stroke-width:0.5;" width="76.1797" x="768.2202" y="2455.4219"/><text fill="#000000" font-family="sans-serif" font-size="14" lengthAdjust="spacing" textLength="48.0156" x="782.3022" y="2475.957">Worker</text><text fill="#000000" font-family="sans-serif" font-size="14" lengthAdjust="spacing" textLength="62.1797" x="775.2202" y="2492.4453">(Plain TS)</text></g><g class="participant participant-head" data-entity-uid="part7" data-qualified-name="DB" id="part7-head"><rect fill="#E2E2F0" height="46.9766" rx="2.5" ry="2.5" style="stroke:#181818;stroke-width:0.5;" width="90.8496" x="1002.9146" y="71"/><text fill="#000000" font-family="sans-serif" font-size="14" lengthAdjust="spacing" textLength="76.8496" x="1009.9146" y="91.5352">PostgreSQL</text><text fill="#000000" font-family="sans-serif" font-size="14" lengthAdjust="spacing" textLength="54.5576" x="1021.0605" y="108.0234">(Prisma)</text></g><g class="participant participant-tail" data-entity-uid="part7" data-qualified-name="DB" id="part7-tail"><rect fill="#E2E2F0" height="46.9766" rx="2.5" ry="2.5" style="stroke:#181818;stroke-width:0.5;" width="90.8496" x="1002.9146" y="2455.4219"/><text fill="#000000" font-family="sans-serif" font-size="14" lengthAdjust="spacing" textLength="76.8496" x="1009.9146" y="2475.957">PostgreSQL</text><text fill="#000000" font-family="sans-serif" font-size="14" lengthAdjust="spacing" textLength="54.5576" x="1021.0605" y="2492.4453">(Prisma)</text></g><rect fill="#EEEEEE" height="3" style="stroke:#EEEEEE;stroke-width:1;" width="1123.7642" x="0" y="149.6318"/><line style="stroke:#000000;stroke-width:1;" x1="0" x2="1123.7642" y1="149.6318" y2="149.6318"/><line style="stroke:#000000;stroke-width:1;" x1="0" x2="1123.7642" y1="152.6318" y2="152.6318"/><rect fill="#EEEEEE" height="23.3105" style="stroke:#000000;stroke-width:2;" width="245.5117" x="439.1262" y="138.9766"/><text fill="#000000" font-family="sans-serif" font-size="13" font-weight="bold" lengthAdjust="spacing" textLength="227.2271" x="445.1262" y="155.5449">READ OPERATIONS (Synchronous)</text><path d="M10,179.2871 L185.4697,179.2871 L185.4697,186.5977 L175.4697,196.5977 L10,196.5977 L10,179.2871" fill="#EEEEEE" style="stroke:#000000;stroke-width:1.5;"/><rect fill="none" height="398.9922" style="stroke:#000000;stroke-width:1.5;" width="1103.7642" x="10" y="179.2871"/><text fill="#000000" font-family="sans-serif" font-size="13" font-weight="bold" lengthAdjust="spacing" textLength="130.4697" x="25" y="192.8555">GET /todos (GetAll)</text><g class="message" data-entity-1="part1" data-entity-2="part2" id="msg1"><polygon fill="#181818" points="158.5493,213.9082,168.5493,217.9082,158.5493,221.9082,162.5493,217.9082" style="stroke:#181818;stroke-width:1;"/><line style="stroke:#181818;stroke-width:1;" x1="42.7524" x2="164.5493" y1="217.9082" y2="217.9082"/><text fill="#000000" font-family="sans-serif" font-size="13" lengthAdjust="spacing" textLength="73.3916" x="49.7524" y="213.166">Load Todos</text></g><g class="message" data-entity-1="part2" data-entity-2="part3" id="msg2"><polygon fill="#181818" points="402.0322,243.2188,412.0322,247.2188,402.0322,251.2188,406.0322,247.2188" style="stroke:#181818;stroke-width:1;"/><line style="stroke:#181818;stroke-width:1;" x1="170.5493" x2="408.0322" y1="247.2188" y2="247.2188"/><text fill="#000000" font-family="sans-serif" font-size="13" lengthAdjust="spacing" textLength="107.1865" x="177.5493" y="242.4766">GET /todos (JWT)</text></g><g class="message" data-entity-1="part3" data-entity-2="part3" id="msg3"><line style="stroke:#181818;stroke-width:1;" x1="414.0322" x2="456.0322" y1="276.5293" y2="276.5293"/><line style="stroke:#181818;stroke-width:1;" x1="456.0322" x2="456.0322" y1="276.5293" y2="289.5293"/><line style="stroke:#181818;stroke-width:1;" x1="415.0322" x2="456.0322" y1="289.5293" y2="289.5293"/><polygon fill="#181818" points="425.0322,285.5293,415.0322,289.5293,425.0322,293.5293,421.0322,289.5293" style="stroke:#181818;stroke-width:1;"/><text fill="#000000" font-family="sans-serif" font-size="13" lengthAdjust="spacing" textLength="78.1587" x="421.0322" y="271.7871">Validate JWT</text></g><g class="message" data-entity-1="part3" data-entity-2="part4" id="msg4"><polygon fill="#181818" points="542.2007,314.8398,552.2007,318.8398,542.2007,322.8398,546.2007,318.8398" style="stroke:#181818;stroke-width:1;"/><line style="stroke:#181818;stroke-width:1;" x1="414.0322" x2="548.2007" y1="318.8398" y2="318.8398"/><text fill="#000000" font-family="sans-serif" font-size="13" lengthAdjust="spacing" textLength="116.1685" x="421.0322" y="314.0977">GET todos:{userId}</text></g><path d="M94.1689,333.8398 L156.3076,333.8398 L156.3076,341.1504 L146.3076,351.1504 L94.1689,351.1504 L94.1689,333.8398" fill="#EEEEEE" style="stroke:#000000;stroke-width:1.5;"/><rect fill="none" height="237.4395" style="stroke:#000000;stroke-width:1.5;" width="1009.5952" x="94.1689" y="333.8398"/><text fill="#000000" font-family="sans-serif" font-size="13" font-weight="bold" lengthAdjust="spacing" textLength="17.1387" x="109.1689" y="347.4082">alt</text><text fill="#000000" font-family="sans-serif" font-size="11" font-weight="bold" lengthAdjust="spacing" textLength="65.4253" x="171.3076" y="346.4746">[Cache HIT]</text><g class="message" data-entity-1="part4" data-entity-2="part3" id="msg5"><polygon fill="#181818" points="425.0322,368.4609,415.0322,372.4609,425.0322,376.4609,421.0322,372.4609" style="stroke:#181818;stroke-width:1;"/><line style="stroke:#181818;stroke-width:1;stroke-dasharray:2,2;" x1="419.0322" x2="553.2007" y1="372.4609" y2="372.4609"/><text fill="#000000" font-family="sans-serif" font-size="13" lengthAdjust="spacing" textLength="47.4551" x="431.0322" y="367.7188">Todos[]</text></g><g class="message" data-entity-1="part3" data-entity-2="part2" id="msg6"><polygon fill="#181818" points="181.5493,397.7715,171.5493,401.7715,181.5493,405.7715,177.5493,401.7715" style="stroke:#181818;stroke-width:1;"/><line style="stroke:#181818;stroke-width:1;stroke-dasharray:2,2;" x1="175.5493" x2="413.0322" y1="401.7715" y2="401.7715"/><text fill="#000000" font-family="sans-serif" font-size="13" lengthAdjust="spacing" textLength="113.3755" x="187.5493" y="397.0293">200 OK + Todos[]</text></g><line style="stroke:#000000;stroke-width:1;stroke-dasharray:2,2;" x1="94.1689" x2="1103.7642" y1="410.7715" y2="410.7715"/><text fill="#000000" font-family="sans-serif" font-size="11" font-weight="bold" lengthAdjust="spacing" textLength="71.8062" x="99.1689" y="421.4063">[Cache MISS]</text><g class="message" data-entity-1="part4" data-entity-2="part3" id="msg7"><polygon fill="#181818" points="425.0322,442.0371,415.0322,446.0371,425.0322,450.0371,421.0322,446.0371" style="stroke:#181818;stroke-width:1;"/><line style="stroke:#181818;stroke-width:1;stroke-dasharray:2,2;" x1="419.0322" x2="553.2007" y1="446.0371" y2="446.0371"/><text fill="#000000" font-family="sans-serif" font-size="13" lengthAdjust="spacing" textLength="23.6514" x="431.0322" y="441.2949">null</text></g><g class="message" data-entity-1="part3" data-entity-2="part7" id="msg8"><polygon fill="#181818" points="1036.3394,471.3477,1046.3394,475.3477,1036.3394,479.3477,1040.3394,475.3477" style="stroke:#181818;stroke-width:1;"/><line style="stroke:#181818;stroke-width:1;" x1="414.0322" x2="1042.3394" y1="475.3477" y2="475.3477"/><text fill="#000000" font-family="sans-serif" font-size="13" lengthAdjust="spacing" textLength="226.3701" x="421.0322" y="470.6055">SELECT * FROM todos WHERE userId</text></g><g class="message" data-entity-1="part7" data-entity-2="part3" id="msg9"><polygon fill="#181818" points="425.0322,500.6582,415.0322,504.6582,425.0322,508.6582,421.0322,504.6582" style="stroke:#181818;stroke-width:1;"/><line style="stroke:#181818;stroke-width:1;stroke-dasharray:2,2;" x1="419.0322" x2="1047.3394" y1="504.6582" y2="504.6582"/><text fill="#000000" font-family="sans-serif" font-size="13" lengthAdjust="spacing" textLength="47.4551" x="431.0322" y="499.916">Todos[]</text></g><g class="message" data-entity-1="part3" data-entity-2="part4" id="msg10"><polygon fill="#181818" points="542.2007,529.9688,552.2007,533.9688,542.2007,537.9688,546.2007,533.9688" style="stroke:#181818;stroke-width:1;"/><line style="stroke:#181818;stroke-width:1;" x1="414.0322" x2="548.2007" y1="533.9688" y2="533.9688"/><text fill="#000000" font-family="sans-serif" font-size="13" lengthAdjust="spacing" textLength="113.7754" x="421.0322" y="529.2266">SET todos:{userId}</text></g><g class="message" data-entity-1="part3" data-entity-2="part2" id="msg11"><polygon fill="#181818" points="181.5493,559.2793,171.5493,563.2793,181.5493,567.2793,177.5493,563.2793" style="stroke:#181818;stroke-width:1;"/><line style="stroke:#181818;stroke-width:1;stroke-dasharray:2,2;" x1="175.5493" x2="413.0322" y1="563.2793" y2="563.2793"/><text fill="#000000" font-family="sans-serif" font-size="13" lengthAdjust="spacing" textLength="113.3755" x="187.5493" y="558.5371">200 OK + Todos[]</text></g><path d="M10,592.2793 L217.7031,592.2793 L217.7031,599.5898 L207.7031,609.5898 L10,609.5898 L10,592.2793" fill="#EEEEEE" style="stroke:#000000;stroke-width:1.5;"/><rect fill="none" height="411.9922" style="stroke:#000000;stroke-width:1.5;" width="1103.7642" x="10" y="592.2793"/><text fill="#000000" font-family="sans-serif" font-size="13" font-weight="bold" lengthAdjust="spacing" textLength="162.7031" x="25" y="605.8477">GET /todos/:id (GetOne)</text><g class="message" data-entity-1="part1" data-entity-2="part2" id="msg12"><polygon fill="#181818" points="158.5493,626.9004,168.5493,630.9004,158.5493,634.9004,162.5493,630.9004" style="stroke:#181818;stroke-width:1;"/><line style="stroke:#181818;stroke-width:1;" x1="42.7524" x2="164.5493" y1="630.9004" y2="630.9004"/><text fill="#000000" font-family="sans-serif" font-size="13" lengthAdjust="spacing" textLength="66.7646" x="49.7524" y="626.1582">Load Todo</text></g><g class="message" data-entity-1="part2" data-entity-2="part3" id="msg13"><polygon fill="#181818" points="402.0322,656.2109,412.0322,660.2109,402.0322,664.2109,406.0322,660.2109" style="stroke:#181818;stroke-width:1;"/><line style="stroke:#181818;stroke-width:1;" x1="170.5493" x2="408.0322" y1="660.2109" y2="660.2109"/><text fill="#000000" font-family="sans-serif" font-size="13" lengthAdjust="spacing" textLength="134.3989" x="177.5493" y="655.4688">GET /todos/{id} (JWT)</text></g><g class="message" data-entity-1="part3" data-entity-2="part3" id="msg14"><line style="stroke:#181818;stroke-width:1;" x1="414.0322" x2="456.0322" y1="689.5215" y2="689.5215"/><line style="stroke:#181818;stroke-width:1;" x1="456.0322" x2="456.0322" y1="689.5215" y2="702.5215"/><line style="stroke:#181818;stroke-width:1;" x1="415.0322" x2="456.0322" y1="702.5215" y2="702.5215"/><polygon fill="#181818" points="425.0322,698.5215,415.0322,702.5215,425.0322,706.5215,421.0322,702.5215" style="stroke:#181818;stroke-width:1;"/><text fill="#000000" font-family="sans-serif" font-size="13" lengthAdjust="spacing" textLength="78.1587" x="421.0322" y="684.7793">Validate JWT</text></g><g class="message" data-entity-1="part3" data-entity-2="part4" id="msg15"><polygon fill="#181818" points="542.2007,727.832,552.2007,731.832,542.2007,735.832,546.2007,731.832" style="stroke:#181818;stroke-width:1;"/><line style="stroke:#181818;stroke-width:1;" x1="414.0322" x2="548.2007" y1="731.832" y2="731.832"/><text fill="#000000" font-family="sans-serif" font-size="13" lengthAdjust="spacing" textLength="116.1685" x="421.0322" y="727.0898">GET todos:{userId}</text></g><path d="M94.1689,746.832 L156.3076,746.832 L156.3076,754.1426 L146.3076,764.1426 L94.1689,764.1426 L94.1689,746.832" fill="#EEEEEE" style="stroke:#000000;stroke-width:1.5;"/><rect fill="none" height="250.4395" style="stroke:#000000;stroke-width:1.5;" width="1009.5952" x="94.1689" y="746.832"/><text fill="#000000" font-family="sans-serif" font-size="13" font-weight="bold" lengthAdjust="spacing" textLength="17.1387" x="109.1689" y="760.4004">alt</text><text fill="#000000" font-family="sans-serif" font-size="11" font-weight="bold" lengthAdjust="spacing" textLength="65.4253" x="171.3076" y="759.4668">[Cache HIT]</text><g class="message" data-entity-1="part4" data-entity-2="part3" id="msg16"><polygon fill="#181818" points="425.0322,781.4531,415.0322,785.4531,425.0322,789.4531,421.0322,785.4531" style="stroke:#181818;stroke-width:1;"/><line style="stroke:#181818;stroke-width:1;stroke-dasharray:2,2;" x1="419.0322" x2="553.2007" y1="785.4531" y2="785.4531"/><text fill="#000000" font-family="sans-serif" font-size="13" lengthAdjust="spacing" textLength="47.4551" x="431.0322" y="780.7109">Todos[]</text></g><g class="message" data-entity-1="part3" data-entity-2="part3" id="msg17"><line style="stroke:#181818;stroke-width:1;" x1="414.0322" x2="456.0322" y1="814.7637" y2="814.7637"/><line style="stroke:#181818;stroke-width:1;" x1="456.0322" x2="456.0322" y1="814.7637" y2="827.7637"/><line style="stroke:#181818;stroke-width:1;" x1="415.0322" x2="456.0322" y1="827.7637" y2="827.7637"/><polygon fill="#181818" points="425.0322,823.7637,415.0322,827.7637,425.0322,831.7637,421.0322,827.7637" style="stroke:#181818;stroke-width:1;"/><text fill="#000000" font-family="sans-serif" font-size="13" lengthAdjust="spacing" textLength="100.1787" x="421.0322" y="810.0215">Filter todo by id</text></g><g class="message" data-entity-1="part3" data-entity-2="part2" id="msg18"><polygon fill="#181818" points="181.5493,853.0742,171.5493,857.0742,181.5493,861.0742,177.5493,857.0742" style="stroke:#181818;stroke-width:1;"/><line style="stroke:#181818;stroke-width:1;stroke-dasharray:2,2;" x1="175.5493" x2="413.0322" y1="857.0742" y2="857.0742"/><text fill="#000000" font-family="sans-serif" font-size="13" lengthAdjust="spacing" textLength="98.2935" x="187.5493" y="852.332">200 OK + Todo</text></g><line style="stroke:#000000;stroke-width:1;stroke-dasharray:2,2;" x1="94.1689" x2="1103.7642" y1="866.0742" y2="866.0742"/><text fill="#000000" font-family="sans-serif" font-size="11" font-weight="bold" lengthAdjust="spacing" textLength="71.8062" x="99.1689" y="876.709">[Cache MISS]</text><g class="message" data-entity-1="part4" data-entity-2="part3" id="msg19"><polygon fill="#181818" points="425.0322,897.3398,415.0322,901.3398,425.0322,905.3398,421.0322,901.3398" style="stroke:#181818;stroke-width:1;"/><line style="stroke:#181818;stroke-width:1;stroke-dasharray:2,2;" x1="419.0322" x2="553.2007" y1="901.3398" y2="901.3398"/><text fill="#000000" font-family="sans-serif" font-size="13" lengthAdjust="spacing" textLength="23.6514" x="431.0322" y="896.5977">null</text></g><g class="message" data-entity-1="part3" data-entity-2="part7" id="msg20"><polygon fill="#181818" points="1036.3394,926.6504,1046.3394,930.6504,1036.3394,934.6504,1040.3394,930.6504" style="stroke:#181818;stroke-width:1;"/><line style="stroke:#181818;stroke-width:1;" x1="414.0322" x2="1042.3394" y1="930.6504" y2="930.6504"/><text fill="#000000" font-family="sans-serif" font-size="13" lengthAdjust="spacing" textLength="217.2422" x="421.0322" y="925.9082">SELECT todo WHERE id AND userId</text></g><g class="message" data-entity-1="part7" data-entity-2="part3" id="msg21"><polygon fill="#181818" points="425.0322,955.9609,415.0322,959.9609,425.0322,963.9609,421.0322,959.9609" style="stroke:#181818;stroke-width:1;"/><line style="stroke:#181818;stroke-width:1;stroke-dasharray:2,2;" x1="419.0322" x2="1047.3394" y1="959.9609" y2="959.9609"/><text fill="#000000" font-family="sans-serif" font-size="13" lengthAdjust="spacing" textLength="32.373" x="431.0322" y="955.2188">Todo</text></g><g class="message" data-entity-1="part3" data-entity-2="part2" id="msg22"><polygon fill="#181818" points="181.5493,985.2715,171.5493,989.2715,181.5493,993.2715,177.5493,989.2715" style="stroke:#181818;stroke-width:1;"/><line style="stroke:#181818;stroke-width:1;stroke-dasharray:2,2;" x1="175.5493" x2="413.0322" y1="989.2715" y2="989.2715"/><text fill="#000000" font-family="sans-serif" font-size="13" lengthAdjust="spacing" textLength="98.2935" x="187.5493" y="984.5293">200 OK + Todo</text></g><rect fill="#EEEEEE" height="3" style="stroke:#EEEEEE;stroke-width:1;" width="1123.7642" x="0" y="1031.9268"/><line style="stroke:#000000;stroke-width:1;" x1="0" x2="1123.7642" y1="1031.9268" y2="1031.9268"/><line style="stroke:#000000;stroke-width:1;" x1="0" x2="1123.7642" y1="1034.9268" y2="1034.9268"/><rect fill="#EEEEEE" height="23.3105" style="stroke:#000000;stroke-width:2;" width="260.1558" x="431.8042" y="1021.2715"/><text fill="#000000" font-family="sans-serif" font-size="13" font-weight="bold" lengthAdjust="spacing" textLength="241.8711" x="437.8042" y="1037.8398">WRITE OPERATIONS (Asynchronous)</text><path d="M10,1061.582 L196.7813,1061.582 L196.7813,1068.8926 L186.7813,1078.8926 L10,1078.8926 L10,1061.582" fill="#EEEEEE" style="stroke:#000000;stroke-width:1.5;"/><rect fill="none" height="192.1738" style="stroke:#000000;stroke-width:1.5;" width="711.2075" x="10" y="1061.582"/><text fill="#000000" font-family="sans-serif" font-size="13" font-weight="bold" lengthAdjust="spacing" textLength="141.7813" x="25" y="1075.1504">POST /todos (Create)</text><g class="message" data-entity-1="part1" data-entity-2="part2" id="msg23"><polygon fill="#181818" points="158.5493,1096.2031,168.5493,1100.2031,158.5493,1104.2031,162.5493,1100.2031" style="stroke:#181818;stroke-width:1;"/><line style="stroke:#181818;stroke-width:1;" x1="42.7524" x2="164.5493" y1="1100.2031" y2="1100.2031"/><text fill="#000000" font-family="sans-serif" font-size="13" lengthAdjust="spacing" textLength="77.3271" x="49.7524" y="1095.4609">Create Todo</text></g><g class="message" data-entity-1="part2" data-entity-2="part3" id="msg24"><polygon fill="#181818" points="402.0322,1125.5137,412.0322,1129.5137,402.0322,1133.5137,406.0322,1129.5137" style="stroke:#181818;stroke-width:1;"/><line style="stroke:#181818;stroke-width:1;" x1="170.5493" x2="408.0322" y1="1129.5137" y2="1129.5137"/><text fill="#000000" font-family="sans-serif" font-size="13" lengthAdjust="spacing" textLength="181.854" x="177.5493" y="1124.7715">POST /todos (JWT + Payload)</text></g><g class="message" data-entity-1="part3" data-entity-2="part3" id="msg25"><line style="stroke:#181818;stroke-width:1;" x1="414.0322" x2="456.0322" y1="1158.8242" y2="1158.8242"/><line style="stroke:#181818;stroke-width:1;" x1="456.0322" x2="456.0322" y1="1158.8242" y2="1171.8242"/><line style="stroke:#181818;stroke-width:1;" x1="415.0322" x2="456.0322" y1="1171.8242" y2="1171.8242"/><polygon fill="#181818" points="425.0322,1167.8242,415.0322,1171.8242,425.0322,1175.8242,421.0322,1171.8242" style="stroke:#181818;stroke-width:1;"/><text fill="#000000" font-family="sans-serif" font-size="13" lengthAdjust="spacing" textLength="78.1587" x="421.0322" y="1154.082">Validate JWT</text></g><g class="message" data-entity-1="part3" data-entity-2="part5" id="msg26"><polygon fill="#181818" points="649.7427,1212.4453,659.7427,1216.4453,649.7427,1220.4453,653.7427,1216.4453" style="stroke:#181818;stroke-width:1;"/><line style="stroke:#181818;stroke-width:1;" x1="414.0322" x2="655.7427" y1="1216.4453" y2="1216.4453"/><text fill="#000000" font-family="sans-serif" font-size="13" lengthAdjust="spacing" textLength="120.0786" x="421.0322" y="1196.3926">LPUSH todo_events</text><text fill="#000000" font-family="sans-serif" font-size="13" lengthAdjust="spacing" textLength="139.9912" x="421.0322" y="1211.7031">{CREATE, userId, data}</text></g><g class="message" data-entity-1="part3" data-entity-2="part2" id="msg27"><polygon fill="#181818" points="181.5493,1241.7559,171.5493,1245.7559,181.5493,1249.7559,177.5493,1245.7559" style="stroke:#181818;stroke-width:1;"/><line style="stroke:#181818;stroke-width:1;stroke-dasharray:2,2;" x1="175.5493" x2="413.0322" y1="1245.7559" y2="1245.7559"/><text fill="#000000" font-family="sans-serif" font-size="13" lengthAdjust="spacing" textLength="77.7969" x="187.5493" y="1241.0137">201 Created</text></g><path d="M10,1267.7559 L235.0449,1267.7559 L235.0449,1275.0664 L225.0449,1285.0664 L10,1285.0664 L10,1267.7559" fill="#EEEEEE" style="stroke:#000000;stroke-width:1.5;"/><rect fill="none" height="192.1738" style="stroke:#000000;stroke-width:1.5;" width="711.2075" x="10" y="1267.7559"/><text fill="#000000" font-family="sans-serif" font-size="13" font-weight="bold" lengthAdjust="spacing" textLength="180.0449" x="25" y="1281.3242">PATCH /todos/:id (Update)</text><g class="message" data-entity-1="part1" data-entity-2="part2" id="msg28"><polygon fill="#181818" points="158.5493,1302.377,168.5493,1306.377,158.5493,1310.377,162.5493,1306.377" style="stroke:#181818;stroke-width:1;"/><line style="stroke:#181818;stroke-width:1;" x1="42.7524" x2="164.5493" y1="1306.377" y2="1306.377"/><text fill="#000000" font-family="sans-serif" font-size="13" lengthAdjust="spacing" textLength="81.1421" x="49.7524" y="1301.6348">Update Todo</text></g><g class="message" data-entity-1="part2" data-entity-2="part3" id="msg29"><polygon fill="#181818" points="402.0322,1331.6875,412.0322,1335.6875,402.0322,1339.6875,406.0322,1335.6875" style="stroke:#181818;stroke-width:1;"/><line style="stroke:#181818;stroke-width:1;" x1="170.5493" x2="408.0322" y1="1335.6875" y2="1335.6875"/><text fill="#000000" font-family="sans-serif" font-size="13" lengthAdjust="spacing" textLength="219.4829" x="177.5493" y="1330.9453">PATCH /todos/{id} (JWT + Payload)</text></g><g class="message" data-entity-1="part3" data-entity-2="part3" id="msg30"><line style="stroke:#181818;stroke-width:1;" x1="414.0322" x2="456.0322" y1="1364.998" y2="1364.998"/><line style="stroke:#181818;stroke-width:1;" x1="456.0322" x2="456.0322" y1="1364.998" y2="1377.998"/><line style="stroke:#181818;stroke-width:1;" x1="415.0322" x2="456.0322" y1="1377.998" y2="1377.998"/><polygon fill="#181818" points="425.0322,1373.998,415.0322,1377.998,425.0322,1381.998,421.0322,1377.998" style="stroke:#181818;stroke-width:1;"/><text fill="#000000" font-family="sans-serif" font-size="13" lengthAdjust="spacing" textLength="78.1587" x="421.0322" y="1360.2559">Validate JWT</text></g><g class="message" data-entity-1="part3" data-entity-2="part5" id="msg31"><polygon fill="#181818" points="649.7427,1418.6191,659.7427,1422.6191,649.7427,1426.6191,653.7427,1422.6191" style="stroke:#181818;stroke-width:1;"/><line style="stroke:#181818;stroke-width:1;" x1="414.0322" x2="655.7427" y1="1422.6191" y2="1422.6191"/><text fill="#000000" font-family="sans-serif" font-size="13" lengthAdjust="spacing" textLength="120.0786" x="421.0322" y="1402.5664">LPUSH todo_events</text><text fill="#000000" font-family="sans-serif" font-size="13" lengthAdjust="spacing" textLength="161.8271" x="421.0322" y="1417.877">{UPDATE, userId, id, data}</text></g><g class="message" data-entity-1="part3" data-entity-2="part2" id="msg32"><polygon fill="#181818" points="181.5493,1447.9297,171.5493,1451.9297,181.5493,1455.9297,177.5493,1451.9297" style="stroke:#181818;stroke-width:1;"/><line style="stroke:#181818;stroke-width:1;stroke-dasharray:2,2;" x1="175.5493" x2="413.0322" y1="1451.9297" y2="1451.9297"/><text fill="#000000" font-family="sans-serif" font-size="13" lengthAdjust="spacing" textLength="100.5596" x="187.5493" y="1447.1875">204 No Content</text></g><path d="M10,1473.9297 L261.5718,1473.9297 L261.5718,1481.2402 L251.5718,1491.2402 L10,1491.2402 L10,1473.9297" fill="#EEEEEE" style="stroke:#000000;stroke-width:1.5;"/><rect fill="none" height="192.1738" style="stroke:#000000;stroke-width:1.5;" width="711.2075" x="10" y="1473.9297"/><text fill="#000000" font-family="sans-serif" font-size="13" font-weight="bold" lengthAdjust="spacing" textLength="206.5718" x="25" y="1487.498">DELETE /todos/:id (DeleteOne)</text><g class="message" data-entity-1="part1" data-entity-2="part2" id="msg33"><polygon fill="#181818" points="158.5493,1508.5508,168.5493,1512.5508,158.5493,1516.5508,162.5493,1512.5508" style="stroke:#181818;stroke-width:1;"/><line style="stroke:#181818;stroke-width:1;" x1="42.7524" x2="164.5493" y1="1512.5508" y2="1512.5508"/><text fill="#000000" font-family="sans-serif" font-size="13" lengthAdjust="spacing" textLength="76.5718" x="49.7524" y="1507.8086">Delete Todo</text></g><g class="message" data-entity-1="part2" data-entity-2="part3" id="msg34"><polygon fill="#181818" points="402.0322,1537.8613,412.0322,1541.8613,402.0322,1545.8613,406.0322,1541.8613" style="stroke:#181818;stroke-width:1;"/><line style="stroke:#181818;stroke-width:1;" x1="170.5493" x2="408.0322" y1="1541.8613" y2="1541.8613"/><text fill="#000000" font-family="sans-serif" font-size="13" lengthAdjust="spacing" textLength="155.7651" x="177.5493" y="1537.1191">DELETE /todos/{id} (JWT)</text></g><g class="message" data-entity-1="part3" data-entity-2="part3" id="msg35"><line style="stroke:#181818;stroke-width:1;" x1="414.0322" x2="456.0322" y1="1571.1719" y2="1571.1719"/><line style="stroke:#181818;stroke-width:1;" x1="456.0322" x2="456.0322" y1="1571.1719" y2="1584.1719"/><line style="stroke:#181818;stroke-width:1;" x1="415.0322" x2="456.0322" y1="1584.1719" y2="1584.1719"/><polygon fill="#181818" points="425.0322,1580.1719,415.0322,1584.1719,425.0322,1588.1719,421.0322,1584.1719" style="stroke:#181818;stroke-width:1;"/><text fill="#000000" font-family="sans-serif" font-size="13" lengthAdjust="spacing" textLength="78.1587" x="421.0322" y="1566.4297">Validate JWT</text></g><g class="message" data-entity-1="part3" data-entity-2="part5" id="msg36"><polygon fill="#181818" points="649.7427,1624.793,659.7427,1628.793,649.7427,1632.793,653.7427,1628.793" style="stroke:#181818;stroke-width:1;"/><line style="stroke:#181818;stroke-width:1;" x1="414.0322" x2="655.7427" y1="1628.793" y2="1628.793"/><text fill="#000000" font-family="sans-serif" font-size="13" lengthAdjust="spacing" textLength="120.0786" x="421.0322" y="1608.7402">LPUSH todo_events</text><text fill="#000000" font-family="sans-serif" font-size="13" lengthAdjust="spacing" textLength="155.3081" x="421.0322" y="1624.0508">{DELETE_ONE, userId, id}</text></g><g class="message" data-entity-1="part3" data-entity-2="part2" id="msg37"><polygon fill="#181818" points="181.5493,1654.1035,171.5493,1658.1035,181.5493,1662.1035,177.5493,1658.1035" style="stroke:#181818;stroke-width:1;"/><line style="stroke:#181818;stroke-width:1;stroke-dasharray:2,2;" x1="175.5493" x2="413.0322" y1="1658.1035" y2="1658.1035"/><text fill="#000000" font-family="sans-serif" font-size="13" lengthAdjust="spacing" textLength="100.5596" x="187.5493" y="1653.3613">204 No Content</text></g><path d="M10,1680.1035 L229.3384,1680.1035 L229.3384,1687.4141 L219.3384,1697.4141 L10,1697.4141 L10,1680.1035" fill="#EEEEEE" style="stroke:#000000;stroke-width:1.5;"/><rect fill="none" height="192.1738" style="stroke:#000000;stroke-width:1.5;" width="711.2075" x="10" y="1680.1035"/><text fill="#000000" font-family="sans-serif" font-size="13" font-weight="bold" lengthAdjust="spacing" textLength="174.3384" x="25" y="1693.6719">DELETE /todos (DeleteAll)</text><g class="message" data-entity-1="part1" data-entity-2="part2" id="msg38"><polygon fill="#181818" points="158.5493,1714.7246,168.5493,1718.7246,158.5493,1722.7246,162.5493,1718.7246" style="stroke:#181818;stroke-width:1;"/><line style="stroke:#181818;stroke-width:1;" x1="42.7524" x2="164.5493" y1="1718.7246" y2="1718.7246"/><text fill="#000000" font-family="sans-serif" font-size="13" lengthAdjust="spacing" textLength="103.7969" x="49.7524" y="1713.9824">Delete All Todos</text></g><g class="message" data-entity-1="part2" data-entity-2="part3" id="msg39"><polygon fill="#181818" points="402.0322,1744.0352,412.0322,1748.0352,402.0322,1752.0352,406.0322,1748.0352" style="stroke:#181818;stroke-width:1;"/><line style="stroke:#181818;stroke-width:1;" x1="170.5493" x2="408.0322" y1="1748.0352" y2="1748.0352"/><text fill="#000000" font-family="sans-serif" font-size="13" lengthAdjust="spacing" textLength="128.5527" x="177.5493" y="1743.293">DELETE /todos (JWT)</text></g><g class="message" data-entity-1="part3" data-entity-2="part3" id="msg40"><line style="stroke:#181818;stroke-width:1;" x1="414.0322" x2="456.0322" y1="1777.3457" y2="1777.3457"/><line style="stroke:#181818;stroke-width:1;" x1="456.0322" x2="456.0322" y1="1777.3457" y2="1790.3457"/><line style="stroke:#181818;stroke-width:1;" x1="415.0322" x2="456.0322" y1="1790.3457" y2="1790.3457"/><polygon fill="#181818" points="425.0322,1786.3457,415.0322,1790.3457,425.0322,1794.3457,421.0322,1790.3457" style="stroke:#181818;stroke-width:1;"/><text fill="#000000" font-family="sans-serif" font-size="13" lengthAdjust="spacing" textLength="78.1587" x="421.0322" y="1772.6035">Validate JWT</text></g><g class="message" data-entity-1="part3" data-entity-2="part5" id="msg41"><polygon fill="#181818" points="649.7427,1830.9668,659.7427,1834.9668,649.7427,1838.9668,653.7427,1834.9668" style="stroke:#181818;stroke-width:1;"/><line style="stroke:#181818;stroke-width:1;" x1="414.0322" x2="655.7427" y1="1834.9668" y2="1834.9668"/><text fill="#000000" font-family="sans-serif" font-size="13" lengthAdjust="spacing" textLength="120.0786" x="421.0322" y="1814.9141">LPUSH todo_events</text><text fill="#000000" font-family="sans-serif" font-size="13" lengthAdjust="spacing" textLength="131.2251" x="421.0322" y="1830.2246">{DELETE_ALL, userId}</text></g><g class="message" data-entity-1="part3" data-entity-2="part2" id="msg42"><polygon fill="#181818" points="181.5493,1860.2773,171.5493,1864.2773,181.5493,1868.2773,177.5493,1864.2773" style="stroke:#181818;stroke-width:1;"/><line style="stroke:#181818;stroke-width:1;stroke-dasharray:2,2;" x1="175.5493" x2="413.0322" y1="1864.2773" y2="1864.2773"/><text fill="#000000" font-family="sans-serif" font-size="13" lengthAdjust="spacing" textLength="100.5596" x="187.5493" y="1859.5352">204 No Content</text></g><rect fill="#EEEEEE" height="3" style="stroke:#EEEEEE;stroke-width:1;" width="1123.7642" x="0" y="1899.9326"/><line style="stroke:#000000;stroke-width:1;" x1="0" x2="1123.7642" y1="1899.9326" y2="1899.9326"/><line style="stroke:#000000;stroke-width:1;" x1="0" x2="1123.7642" y1="1902.9326" y2="1902.9326"/><rect fill="#EEEEEE" height="23.3105" style="stroke:#000000;stroke-width:2;" width="213.0181" x="455.373" y="1889.2773"/><text fill="#000000" font-family="sans-serif" font-size="13" font-weight="bold" lengthAdjust="spacing" textLength="194.7334" x="461.373" y="1905.8457">ASYNC WORKER PROCESSING</text><path d="M486.1235,1929.5879 L697.1147,1929.5879 L697.1147,1936.8984 L687.1147,1946.8984 L486.1235,1946.8984 L486.1235,1929.5879" fill="#EEEEEE" style="stroke:#000000;stroke-width:1.5;"/><rect fill="none" height="474.5234" style="stroke:#000000;stroke-width:1.5;" width="627.6406" x="486.1235" y="1929.5879"/><text fill="#000000" font-family="sans-serif" font-size="13" font-weight="bold" lengthAdjust="spacing" textLength="165.9912" x="501.1235" y="1943.1563">Worker Event Processing</text><g class="message" data-entity-1="part6" data-entity-2="part5" id="msg43"><polygon fill="#181818" points="672.7427,1964.209,662.7427,1968.209,672.7427,1972.209,668.7427,1968.209" style="stroke:#181818;stroke-width:1;"/><line style="stroke:#181818;stroke-width:1;" x1="666.7427" x2="805.3101" y1="1968.209" y2="1968.209"/><text fill="#000000" font-family="sans-serif" font-size="13" lengthAdjust="spacing" textLength="120.5674" x="678.7427" y="1963.4668">BRPOP todo_events</text></g><path d="M496.1235,1983.209 L558.2622,1983.209 L558.2622,1990.5195 L548.2622,2000.5195 L496.1235,2000.5195 L496.1235,1983.209" fill="#EEEEEE" style="stroke:#000000;stroke-width:1.5;"/><rect fill="none" height="413.9023" style="stroke:#000000;stroke-width:1.5;" width="607.6406" x="496.1235" y="1983.209"/><text fill="#000000" font-family="sans-serif" font-size="13" font-weight="bold" lengthAdjust="spacing" textLength="17.1387" x="511.1235" y="1996.7773">alt</text><text fill="#000000" font-family="sans-serif" font-size="11" font-weight="bold" lengthAdjust="spacing" textLength="52.481" x="573.2622" y="1995.8438">[CREATE]</text><g class="message" data-entity-1="part6" data-entity-2="part7" id="msg44"><polygon fill="#181818" points="1036.3394,2017.8301,1046.3394,2021.8301,1036.3394,2025.8301,1040.3394,2021.8301" style="stroke:#181818;stroke-width:1;"/><line style="stroke:#181818;stroke-width:1;" x1="806.3101" x2="1042.3394" y1="2021.8301" y2="2021.8301"/><text fill="#000000" font-family="sans-serif" font-size="13" lengthAdjust="spacing" textLength="76.9653" x="813.3101" y="2017.0879">INSERT todo</text></g><g class="message" data-entity-1="part7" data-entity-2="part6" id="msg45"><polygon fill="#181818" points="817.3101,2047.1406,807.3101,2051.1406,817.3101,2055.1406,813.3101,2051.1406" style="stroke:#181818;stroke-width:1;"/><line style="stroke:#181818;stroke-width:1;stroke-dasharray:2,2;" x1="811.3101" x2="1047.3394" y1="2051.1406" y2="2051.1406"/><text fill="#000000" font-family="sans-serif" font-size="13" lengthAdjust="spacing" textLength="18.5859" x="823.3101" y="2046.3984">OK</text></g><g class="message" data-entity-1="part6" data-entity-2="part4" id="msg46"><polygon fill="#181818" points="565.2007,2076.4512,555.2007,2080.4512,565.2007,2084.4512,561.2007,2080.4512" style="stroke:#181818;stroke-width:1;"/><line style="stroke:#181818;stroke-width:1;" x1="559.2007" x2="805.3101" y1="2080.4512" y2="2080.4512"/><text fill="#000000" font-family="sans-serif" font-size="13" lengthAdjust="spacing" textLength="115.2227" x="571.2007" y="2075.709">DEL todos:{userId}</text></g><line style="stroke:#000000;stroke-width:1;stroke-dasharray:2,2;" x1="496.1235" x2="1103.7642" y1="2089.4512" y2="2089.4512"/><text fill="#000000" font-family="sans-serif" font-size="11" font-weight="bold" lengthAdjust="spacing" textLength="54.0171" x="501.1235" y="2100.0859">[UPDATE]</text><g class="message" data-entity-1="part6" data-entity-2="part7" id="msg47"><polygon fill="#181818" points="1036.3394,2120.7168,1046.3394,2124.7168,1036.3394,2128.7168,1040.3394,2124.7168" style="stroke:#181818;stroke-width:1;"/><line style="stroke:#181818;stroke-width:1;" x1="806.3101" x2="1042.3394" y1="2124.7168" y2="2124.7168"/><text fill="#000000" font-family="sans-serif" font-size="13" lengthAdjust="spacing" textLength="83.2939" x="813.3101" y="2119.9746">UPDATE todo</text></g><g class="message" data-entity-1="part7" data-entity-2="part6" id="msg48"><polygon fill="#181818" points="817.3101,2150.0273,807.3101,2154.0273,817.3101,2158.0273,813.3101,2154.0273" style="stroke:#181818;stroke-width:1;"/><line style="stroke:#181818;stroke-width:1;stroke-dasharray:2,2;" x1="811.3101" x2="1047.3394" y1="2154.0273" y2="2154.0273"/><text fill="#000000" font-family="sans-serif" font-size="13" lengthAdjust="spacing" textLength="18.5859" x="823.3101" y="2149.2852">OK</text></g><g class="message" data-entity-1="part6" data-entity-2="part4" id="msg49"><polygon fill="#181818" points="565.2007,2179.3379,555.2007,2183.3379,565.2007,2187.3379,561.2007,2183.3379" style="stroke:#181818;stroke-width:1;"/><line style="stroke:#181818;stroke-width:1;" x1="559.2007" x2="805.3101" y1="2183.3379" y2="2183.3379"/><text fill="#000000" font-family="sans-serif" font-size="13" lengthAdjust="spacing" textLength="115.2227" x="571.2007" y="2178.5957">DEL todos:{userId}</text></g><line style="stroke:#000000;stroke-width:1;stroke-dasharray:2,2;" x1="496.1235" x2="1103.7642" y1="2192.3379" y2="2192.3379"/><text fill="#000000" font-family="sans-serif" font-size="11" font-weight="bold" lengthAdjust="spacing" textLength="80.2979" x="501.1235" y="2202.9727">[DELETE_ONE]</text><g class="message" data-entity-1="part6" data-entity-2="part7" id="msg50"><polygon fill="#181818" points="1036.3394,2223.6035,1046.3394,2227.6035,1036.3394,2231.6035,1040.3394,2227.6035" style="stroke:#181818;stroke-width:1;"/><line style="stroke:#181818;stroke-width:1;" x1="806.3101" x2="1042.3394" y1="2227.6035" y2="2227.6035"/><text fill="#000000" font-family="sans-serif" font-size="13" lengthAdjust="spacing" textLength="218.0293" x="813.3101" y="2222.8613">DELETE todo WHERE id AND userId</text></g><g class="message" data-entity-1="part7" data-entity-2="part6" id="msg51"><polygon fill="#181818" points="817.3101,2252.9141,807.3101,2256.9141,817.3101,2260.9141,813.3101,2256.9141" style="stroke:#181818;stroke-width:1;"/><line style="stroke:#181818;stroke-width:1;stroke-dasharray:2,2;" x1="811.3101" x2="1047.3394" y1="2256.9141" y2="2256.9141"/><text fill="#000000" font-family="sans-serif" font-size="13" lengthAdjust="spacing" textLength="18.5859" x="823.3101" y="2252.1719">OK</text></g><g class="message" data-entity-1="part6" data-entity-2="part4" id="msg52"><polygon fill="#181818" points="565.2007,2282.2246,555.2007,2286.2246,565.2007,2290.2246,561.2007,2286.2246" style="stroke:#181818;stroke-width:1;"/><line style="stroke:#181818;stroke-width:1;" x1="559.2007" x2="805.3101" y1="2286.2246" y2="2286.2246"/><text fill="#000000" font-family="sans-serif" font-size="13" lengthAdjust="spacing" textLength="115.2227" x="571.2007" y="2281.4824">DEL todos:{userId}</text></g><line style="stroke:#000000;stroke-width:1;stroke-dasharray:2,2;" x1="496.1235" x2="1103.7642" y1="2295.2246" y2="2295.2246"/><text fill="#000000" font-family="sans-serif" font-size="11" font-weight="bold" lengthAdjust="spacing" textLength="77.0752" x="501.1235" y="2305.8594">[DELETE_ALL]</text><g class="message" data-entity-1="part6" data-entity-2="part7" id="msg53"><polygon fill="#181818" points="1036.3394,2326.4902,1046.3394,2330.4902,1036.3394,2334.4902,1040.3394,2330.4902" style="stroke:#181818;stroke-width:1;"/><line style="stroke:#181818;stroke-width:1;" x1="806.3101" x2="1042.3394" y1="2330.4902" y2="2330.4902"/><text fill="#000000" font-family="sans-serif" font-size="13" lengthAdjust="spacing" textLength="176.1792" x="813.3101" y="2325.748">DELETE todos WHERE userId</text></g><g class="message" data-entity-1="part7" data-entity-2="part6" id="msg54"><polygon fill="#181818" points="817.3101,2355.8008,807.3101,2359.8008,817.3101,2363.8008,813.3101,2359.8008" style="stroke:#181818;stroke-width:1;"/><line style="stroke:#181818;stroke-width:1;stroke-dasharray:2,2;" x1="811.3101" x2="1047.3394" y1="2359.8008" y2="2359.8008"/><text fill="#000000" font-family="sans-serif" font-size="13" lengthAdjust="spacing" textLength="18.5859" x="823.3101" y="2355.0586">OK</text></g><g class="message" data-entity-1="part6" data-entity-2="part4" id="msg55"><polygon fill="#181818" points="565.2007,2385.1113,555.2007,2389.1113,565.2007,2393.1113,561.2007,2389.1113" style="stroke:#181818;stroke-width:1;"/><line style="stroke:#181818;stroke-width:1;" x1="559.2007" x2="805.3101" y1="2389.1113" y2="2389.1113"/><text fill="#000000" font-family="sans-serif" font-size="13" lengthAdjust="spacing" textLength="115.2227" x="571.2007" y="2384.3691">DEL todos:{userId}</text></g><path d="M353,2416.1113 L353,2441.1113 L1006,2441.1113 L1006,2426.1113 L996,2416.1113 L353,2416.1113" fill="#FEFFDD" style="stroke:#181818;stroke-width:0.5;"/><path d="M996,2416.1113 L996,2426.1113 L1006,2426.1113 L996,2416.1113" fill="#FEFFDD" style="stroke:#181818;stroke-width:0.5;"/><text fill="#000000" font-family="sans-serif" font-size="13" lengthAdjust="spacing" textLength="632.3853" x="359" y="2433.6797">Worker is only responsible for\nwrites and cache invalidation.\nReads are never handled by Worker.</text><?plantuml-src nLPRJzim57xlhpZYOMetRflsLAb88Krfe3GXILTDOqAcCSMQSJhROQeG_tqdTaeR2AL3bOQ4A3qNd-zyvwQPvXIIBCt02NtOWv5WDuoc4DFVEHKJ2br6ffBSGJEY98KFC9PCKmXcL1BDCg5Q3JBHcGINCofqOqQaPXCs8qB3ZYEcEISIUZ8Jcefq1uY2dbTLylXSCN8Q5m4O1VnRrOXeoXIuP79BZOBvlqxb8gUvLJ6VgYhZJFwYyb8qGqwOW2Hk6KtxTLKrp9IUIXfV30froTGTiShTuqQd0v7dT248lSX9_60OGpEUYyajOinorO9Efp6LMJw34o-10usfLT0yeThXlDK0A1C5UqUOYJOCCingaNzLo7fUyJqce5snFXqdnjHGLCg_4SvIWbIWS4Lc4c6jZN7x8LTK-kbZeKEujcc4lc-CYX-Rkhs5NnFBZvyBgN5Rnlhby122C_YqgaEvegNFSp-ENt4gSiuh7eymbMs8lO7d9l0HUb5mRkE5ST-BFB11Bqown-lZUu8TryBU28T86yNlS-eEsYmrz0M2hgFlLVOE7bZw-FyfB4KznZMLnYzSpu6bR-PdMoIR9osvc55ds7s3uyq2Ard3fXn7Vk9Lkj9HjMqP1l6oirn9aO0QOgsWZjgAFJA7uOHaph4GDYNO32UidN0KzqrUhkWzFgqknOEBioNnTilSx09QayV6YpHyBkDRhTdGITn-fMf7ixGUd1NKWbjrybIvMuKu2hiLYEnrc5zXc85hTeTUGTh5YaAkLw5sAQUQrlUebTMXhJhwvqPT0z9wlWg65Q3lXBY0Lxz1IdWehDqZppnj5Pup62pWRG8DkzI9lmzT60VHcHT160Mk5yV-y6JPdNOTWrUy1A7C9bGf9gQ5zrAqZEmu2eDmDRAd0McwQ351bdR5EFA7iHVPSVHiz5YzDawObvRbJ4RSDJFPZ4TRrlLlMjdstrnMMVsx9VSRZjwjn88byMOiQvVy-wCeTu78i9ApUxImXhlsN2ozuCBA19-3f6g6rokxnlFt9iEpy4znroeW8eM9sNHCtDk-m2jt_r8Kvo-A9GL12-UtgCdnKCOjQbtl5wz3yVfV?></g></svg>